<?xml version="1.0" standalone="no"?><!DOCTYPE svg PUBLIC "-//W3C//DTD SVG 1.1//EN" "http://www.w3.org/Graphics/SVG/1.1/DTD/svg11.dtd"><svg t="1496719688447" class="icon" style="" viewBox="0 0 1024 1024" version="1.1" xmlns="http://www.w3.org/2000/svg" p-id="4605" xmlns:xlink="http://www.w3.org/1999/xlink" width="64" height="64"><defs><style type="text/css"></style></defs><path d="M512 12C235.8 12 12 235.9 12 512c0 276.2 223.9 500 500 500 276.2 0 500-223.9 500-500 0-276.2-223.9-500-500-500z m253.2 594.2h-38.9v103.9c0 28.7-23.3 51.9-51.9 51.9h-98.7v-38.9c0.6-25.5-12.6-49.3-34.6-62.2-22-12.9-49.2-12.9-71.1 0-22 12.9-35.2 36.7-34.6 62.2V762h-98.7c-13.8 0-27-5.5-36.7-15.2s-15.2-23-15.2-36.8v-98.7h38.9c38.1-0.9 68.4-32.1 68.4-70.1 0-38.1-30.4-69.2-68.4-70.1h-38.9l0.3-98.7c-0.1-13.8 5.4-27 15.1-36.7 9.7-9.7 22.9-15.2 36.6-15.2h103.7v-38.9c0-35.9 29.1-64.9 64.9-64.9s64.9 29.1 64.9 64.9v38.9h104.1c28.7 0 51.9 23.3 51.9 51.9v104.1h38.9v-0.2c35.9 0 64.9 29.1 64.9 64.9 0.1 35.9-29 65-64.9 65z" p-id="4606" fill="#13eab2"></path></svg>