<?xml version="1.0" standalone="no"?><!DOCTYPE svg PUBLIC "-//W3C//DTD SVG 1.1//EN" "http://www.w3.org/Graphics/SVG/1.1/DTD/svg11.dtd"><svg t="1489120015536" class="icon" style="" viewBox="0 0 1024 1024" version="1.1" xmlns="http://www.w3.org/2000/svg" p-id="11139" xmlns:xlink="http://www.w3.org/1999/xlink" width="200" height="200"><defs><style type="text/css"></style></defs><path d="M1024 512c0 282.769408-229.230592 512-512 512S0 794.769408 0 512 229.230592 0 512 0 1024 229.230592 1024 512zM320.784384 754.2784l45.899776 0 0-38.339584 293.220352 0L659.904512 754.2784l45.899776 0L705.804288 263.957504 320.784384 263.957504 320.784384 754.2784zM659.904512 304.457728l0 161.460224L366.68416 465.917952 366.68416 304.457728 659.904512 304.457728zM659.904512 506.418176l0 170.099712L366.68416 676.517888 366.68416 506.418176 659.904512 506.418176z" p-id="11140" fill="#13eab2"></path></svg>