<?xml version="1.0" standalone="no"?><!DOCTYPE svg PUBLIC "-//W3C//DTD SVG 1.1//EN" "http://www.w3.org/Graphics/SVG/1.1/DTD/svg11.dtd"><svg t="1496756098978" class="icon" style="" viewBox="0 0 1024 1024" version="1.1" xmlns="http://www.w3.org/2000/svg" p-id="3404" xmlns:xlink="http://www.w3.org/1999/xlink" width="64" height="64"><defs><style type="text/css"></style></defs><path d="M344.4593 791.382c15.4235 0 27.902-12.4795 27.902-27.902L372.3613 456.558592c0-15.4225-12.4795-27.902-27.902-27.902-15.4225 0-27.902 12.4805-27.902 27.902l0 306.922496C316.5573 778.9036 329.0368 791.382 344.4593 791.382zM511.872 791.382c15.4235 0 27.902-12.4795 27.902-27.902L539.774 456.558592c0-15.4225-12.4795-27.902-27.902-27.902s-27.902 12.4805-27.902 27.902l0 306.922496C483.969 778.9036 496.4485 791.382 511.872 791.382zM679.2837 791.382c15.4235 0 27.902-12.4795 27.902-27.902L707.1857 456.558592c0-15.4225-12.4795-27.902-27.902-27.902s-27.902 12.4805-27.902 27.902l0 306.922496C651.3818 778.9036 663.8602 791.382 679.2837 791.382zM818.7935 149.6361 703.234048 149.6361c-12.4795-48.0113-55.8039-83.7059-107.6572-83.7059L428.16512 65.9302c-51.8533 0-95.1777 35.6946-107.6572 83.7059L204.949504 149.6361c-61.5526 0-111.6078 50.0828-111.6078 111.6078l0 27.902976 27.901952 0 0 27.901952 55.803904 0 0 530.138112c0 61.526 50.0552 111.6078 111.6078 111.6078l446.432256 0c61.5547 0 111.6078-50.0818 111.6078-111.6078L846.695416 317.047808l55.803904 0 0-27.901952 27.901952 0 0-27.902976C930.4013 199.7179 880.3482 149.6361 818.7935 149.6361zM428.1651 121.7341l167.411712 0c20.5445 0 38.3652 11.308 48.0389 27.902L380.127232 149.6361C389.801 133.0422 407.6206 121.7341 428.1651 121.7341zM790.8915 847.1859c0 30.7896-25.0399 55.8039-55.8039 55.8039L288.65536 902.9898c-30.763 0-59.6726-25.0143-59.6726-55.8039l3.8687-530.1381 558.040064 0L790.891524 847.18592zM149.1446 261.2439c0-30.7896 25.0419-55.8039 55.8039-55.8039L818.793472 205.44c30.7651 0 55.8039 25.0143 55.8039 55.8039L149.144576 261.2439z" p-id="3405" fill="#e4352e"></path></svg>