<?xml version="1.0" standalone="no"?><!DOCTYPE svg PUBLIC "-//W3C//DTD SVG 1.1//EN" "http://www.w3.org/Graphics/SVG/1.1/DTD/svg11.dtd"><svg t="1496748147836" class="icon" style="" viewBox="0 0 1024 1024" version="1.1" xmlns="http://www.w3.org/2000/svg" p-id="2371" xmlns:xlink="http://www.w3.org/1999/xlink" width="64" height="64"><defs><style type="text/css"></style></defs><path d="M511.939625 959.013917 511.939625 959.013917 511.939625 959.013917Z" p-id="2372"></path><path d="M959.542966 511.410576c0-55.658647-10.255575-108.872616-28.810163-158.00871l-54.391794 15.294334c17.361413 44.288692 27.240411 92.279706 27.240411 142.714376 0 216.302371-175.331237 391.640772-391.641795 391.640772-216.302371 0-391.671471-175.338401-391.671471-391.641795s175.371146-391.673517 391.672494-391.673517c51.356668 0 100.299357 10.183943 145.236825 28.1532l15.711843-54.16769c-49.970088-19.268856-104.178711-29.956266-160.949692-29.956266-247.203148 0-447.636087 200.439078-447.636087 447.644273 0 247.212358 200.431915 447.603341 447.636087 447.603341C759.15403 959.013917 959.543989 758.62191 959.542966 511.410576z" p-id="2373"></path><path d="M427.555749 536.079418 426.266383 538.399253 356.299869 664.295592 352.897376 670.418033 359.02084 667.016563 484.910015 597.089957 487.228827 595.802638 485.35413 593.926918 429.431469 537.957185Z" p-id="2374"></path><path d="M478.860229 518.887874l25.558096 25.596981c3.01773 3.0208 7.037277 4.684696 11.31879 4.684696 4.281513 0 8.299013-1.663896 11.311627-4.685719l395.644969-395.635759c6.236028-6.246261 6.235005-16.399505 0-22.63451l-25.599028-25.559119c-3.019777-3.015683-7.03216-4.677533-11.296277-4.677533s-8.276501 1.660826-11.296277 4.677533L478.861252 496.302483C472.63955 502.525208 472.638527 512.656963 478.860229 518.887874z" p-id="2375"></path></svg>