<?xml version="1.0" standalone="no"?><!DOCTYPE svg PUBLIC "-//W3C//DTD SVG 1.1//EN" "http://www.w3.org/Graphics/SVG/1.1/DTD/svg11.dtd"><svg t="1488526092398" class="icon" style="" viewBox="0 0 1024 1024" version="1.1" xmlns="http://www.w3.org/2000/svg" p-id="6784" xmlns:xlink="http://www.w3.org/1999/xlink" width="200" height="200"><defs><style type="text/css"></style></defs><path d="M799.7931 128.258129 767.820921 128.258129 767.820921 64.303538l-63.944358 0 0 63.954591L320.12446 128.258129 320.12446 64.303538l-63.945381 0 0 63.954591-31.974225 0c-70.640873 0-127.929648 57.279564-127.929648 127.910205l0 575.617923c0 70.64292 57.287751 127.910205 127.929648 127.910205l575.588247 0c70.641897 0 127.929648-57.267285 127.929648-127.910205L927.722748 256.168334C927.722748 185.537693 870.434997 128.258129 799.7931 128.258129zM863.757924 831.786257c0 35.32146-28.624944 63.945381-63.964824 63.945381L224.204853 895.731638c-35.33988 0-63.964824-28.624944-63.964824-63.945381l0-447.696462 703.517895 0L863.757924 831.786257zM863.757924 320.135204 160.240029 320.135204l0-63.96687c0-35.311227 28.624944-63.954591 63.964824-63.954591l31.974225 0 0 63.954591 63.945381 0 0-63.954591 383.751081 0 0 63.954591 63.944358 0 0-63.954591 31.972179 0c35.33988 0 63.964824 28.643364 63.964824 63.954591L863.756901 320.135204z" p-id="6785" fill="#707070"></path><path d="M288.150234 863.757412l63.946404 0 0-95.91756L480.026286 767.839853l0 95.91756 63.946404 0 0-95.91756 127.929648 0 0 95.91756 63.944358 0 0-95.91756 63.946404 0 0-63.964824-63.946404 0L735.846696 575.954591l63.946404 0 0-63.954591-63.946404 0 0-95.939049-63.944358 0 0 95.939049L543.972691 512l0-95.939049-63.946404 0 0 95.939049L352.097662 512l0-95.939049-63.946404 0 0 95.939049-63.945381 0 0 63.954591 63.945381 0 0 127.920438-63.945381 0 0 63.964824 63.945381 0L288.151257 863.757412zM543.972691 575.954591l127.929648 0 0 127.920438L543.972691 703.875029 543.972691 575.954591zM352.097662 575.954591 480.026286 575.954591l0 127.920438L352.097662 703.875029 352.097662 575.954591z" p-id="6786" fill="#707070"></path></svg>