<?xml version="1.0" standalone="no"?><!DOCTYPE svg PUBLIC "-//W3C//DTD SVG 1.1//EN" "http://www.w3.org/Graphics/SVG/1.1/DTD/svg11.dtd"><svg t="1488526156843" class="icon" style="" viewBox="0 0 1024 1024" version="1.1" xmlns="http://www.w3.org/2000/svg" p-id="7643" xmlns:xlink="http://www.w3.org/1999/xlink" width="200" height="200"><defs><style type="text/css"></style></defs><path d="M805.234531 575.49001c-38.131459-66.059532-15.196097-150.729933 51.217499-189.172477l-71.426773-123.735116c-20.407796 11.979846-44.142359 18.832927-69.453838 18.832927-76.351945 0-138.221038-62.288648-138.221038-139.129734l-142.832056 0.022513c0.177032 23.713075-5.724375 47.781236-18.435884 69.742411-38.131459 66.059532-122.913401 88.508823-189.416024 50.220798l-71.450309 123.735116c20.540825 11.691273 38.352493 28.79379 50.997488 50.731428 38.086433 65.947991 15.283078 150.420895-50.887994 188.972932l71.429843 123.735116c20.341281-11.866259 43.965328-18.633383 69.14173-18.633383 76.109422 0 137.820925 61.889559 138.198525 138.374534l142.856615 0c-0.068562-23.491017 5.876847-47.249117 18.432815-69.009723 38.065967-65.947991 122.624828-88.441285 189.084473-50.39783l71.450309-123.735116C835.513138 614.375645 817.8345 597.316108 805.234531 575.49001zM505.83458 652.907217c-81.277118 0-147.159618-65.8825-147.159618-147.159618 0-81.276095 65.8825-147.158594 147.159618-147.158594 81.276095 0 147.158594 65.8825 147.158594 147.158594C652.994198 587.024717 587.110675 652.907217 505.83458 652.907217z" p-id="7644" fill="#707070"></path></svg>