<?xml version="1.0" standalone="no"?><!DOCTYPE svg PUBLIC "-//W3C//DTD SVG 1.1//EN" "http://www.w3.org/Graphics/SVG/1.1/DTD/svg11.dtd"><svg t="1488525845008" class="icon" style="" viewBox="0 0 1024 1024" version="1.1" xmlns="http://www.w3.org/2000/svg" p-id="3135" xmlns:xlink="http://www.w3.org/1999/xlink" width="200" height="200"><defs><style type="text/css"></style></defs><path d="M511.95733 1.280107C229.907159 1.280107 1.280107 229.907159 1.280107 512.04267s228.627052 510.677223 510.677223 510.677223c282.050171 0 510.677223-228.627052 510.677223-510.677223S794.092841 1.280107 511.95733 1.280107zM511.95733 972.881073C257.472123 972.881073 51.118927 766.527877 51.118927 512.04267c0-254.570548 206.353196-460.923744 460.923744-460.923744S972.881073 257.472123 972.881073 512.04267C972.881073 766.527877 766.527877 972.881073 511.95733 972.881073zM284.269022 587.142262l400.929411 0c-42.328861 82.012168-119.220602 145.932161-230.589882 191.75998l31.063922 40.19535C612.659055 764.650388 697.487457 684.771731 740.24302 579.376281L740.24302 543.789316 284.269022 543.789316 284.269022 587.142262zM457.254105 390.261855 431.907992 427.214268c51.374948 22.017835 101.469789 52.057671 150.284524 90.03417l24.578048-38.829902C562.393533 443.855655 512.469372 414.413201 457.254105 390.261855zM531.073589 228.371031 497.364114 228.371031C422.691224 314.223519 327.87799 386.165514 213.009751 444.026336l24.578048 44.03567c115.294941-61.786482 207.462622-133.387116 276.588382-215.057921 76.465039 88.071339 168.632719 159.586632 276.588382 214.375198l24.578048-43.352946C707.045587 390.517876 612.232353 318.575881 531.073589 228.371031z" p-id="3136" fill="#25f699"></path></svg>